# xmcd CD database file
#
# Track frame offsets:
#	150
#	10872
#	23172
#	38323
#	54836
#	64195
#	80470
#	90529
#	104771
#	119183
#	132308
#	147897
#	160725
#	172724
#	188324
#	199125
#	213225
#	225150
#	241124
#	259800
#	274572
#	286499
#	299849
#	310051
#
# Disc length: 4324 seconds
#
# Revision: 0
# Processed by: cddbd v1.5.1PL2 Copyright (c) Steve Scherf et al.
# Submitted via: CDex 1.51
#
DISCID=4410e218
DTITLE=Slim Whitman - Red River Valley-Home on the Range
DYEAR=2005
DGENRE=Country
TTITLE0=Rhinestione Cowboy
TTITLE1=Mr Ting-A-Ling (Sreel Guitar Man)
TTITLE2=Too Young
TTITLE3=Let Me Call You Sweetheart
TTITLE4=(It's A) Small World 
TTITLE5=Somewhere My Love (Lara's Theme)
TTITLE6=Una Paloma Blanca
TTITLE7=Red River Valley
TTITLE8=My Elusive Dreams
TTITLE9=Cara Mia
TTITLE10=When the Moon Comes over the Mountains
TTITLE11=Now is the Hour
TTITLE12=Dear Heart
TTITLE13=When You and I were Young Maggie
TTITLE14=Perly Shells
TTITLE15=Down the River of Golden Dreams
TTITLE16=Top of the World
TTITLE17=Rockin' Alone (in an Old Rockin' Chair)
TTITLE18=Home on the Range
TTITLE19=Say You'll Stay Untill Tomorrow
TTITLE20=Paper Roses
TTITLE21=I'm So Lonesome
TTITLE22=Diane
TTITLE23=I'll Be Home
EXTD=YEAR: 2005
EXTT0=
EXTT1=
EXTT2=
EXTT3=
EXTT4=
EXTT5=
EXTT6=
EXTT7=
EXTT8=
EXTT9=
EXTT10=
EXTT11=
EXTT12=
EXTT13=
EXTT14=
EXTT15=
EXTT16=
EXTT17=
EXTT18=
EXTT19=
EXTT20=
EXTT21=
EXTT22=
EXTT23=
PLAYORDER=
